# xmcd
#
# Track frame offsets: 
#        150
#        21058
#        47011
#        61551
#        99815
#        119472
#        148459
#        174697
#        189353
#        197509
#        221179
#        243682
#        272186
#        290067
#        313953
#
# Disc length: 4671 seconds
#
# Revision: 8
# Processed by: cddbd v1.5.2PL0 Copyright (c) Steve Scherf et al.
# Submitted via: ExactAudioCopy v1.3
#
DISCID=ea123d0f
DTITLE=Kenny Wayne Shepherd - 10 Days Out: Blues From The Backroads
DYEAR=2006
DGENRE=Blues Rock
TTITLE0=Prison Blues [Cootie Stark and Neal "Big Daddy" Pattman]
TTITLE1=Potato Patch [Jerry "Boogie" McCain]
TTITLE2=Honky Tonk [Buddy Flett]
TTITLE3=The Thrill is Gone [B.B. King]
TTITLE4=Tina Marie [Bryan Lee]
TTITLE5=Born in Louisiana [Clarence "Gatemouth" Brown]
TTITLE6=Chapel Hill Boogie [John Dee Holeman]
TTITLE7=Tears Come Rollin' Down [Henry Townsend]
TTITLE8=Knoxville Rag [Etta Baker]
TTITLE9=Bid Daddy Boogie [Neal "Big Daddy" Pattman]
TTITLE10=U-Haul [Cootie Stark]
TTITLE11=Red Rooster [Henry Gray with Howlin' Wolf Band]
TTITLE12=Sittin' On Top of the World [Hubert Sumlin with Howlin' Wolf 
TTITLE12=Band]
TTITLE13=Spoonful [George "Wild Child" Butler with Howlin' Wolf Band]
TTITLE14=Grindin' Man [Pinetop Perkins with Muddy Waters Band]
EXTD=
EXTT0=
EXTT1=
EXTT2=
EXTT3=
EXTT4=
EXTT5=
EXTT6=
EXTT7=
EXTT8=
EXTT9=
EXTT10=
EXTT11=
EXTT12=
EXTT13=
EXTT14=
PLAYORDER=
